# xmcd CD database file
#
# Track frame offsets:
#	150
#	19439
#	30497
#	41336
#	55790
#	66834
#	84639
#	98691
#	111400
#	123226
#	135895
#	149381
#	162931
#	173779
#	184892
#	200399
#	211836
#	224016
#	235828
#	248649
#	259323
#	269978
#	280337
#	294890
#
# Disc length: 4089 seconds
#
# Revision: 0
# Processed by: cddbd v1.5.2PL0 Copyright (c) Steve Scherf et al.
# Submitted via: CDex 1.51
#
DISCID=690ff718
DTITLE=Georgie Auld - Four Classic Albums, CD1 (In the Land of HiFi - Misty)
DYEAR=2016
DGENRE=Jazz
TTITLE0=In The Land Of Hi Fi
TTITLE1=For You
TTITLE2=Until The Real Thing Comes Along
TTITLE3=Tippin' In
TTITLE4=Sunday Kind Of Love
TTITLE5=I May Be Wrong
TTITLE6=Swingin' In The Moore Park
TTITLE7=If I Loved You
TTITLE8=Dinah
TTITLE9=They Can't Take That Away From Me
TTITLE10=My Blue Heaven
TTITLE11=Love Is Just Around The Corner
TTITLE12=Misty
TTITLE13=Spring It Was
TTITLE14=Francie's Theme
TTITLE15=Summer Time
TTITLE16=Your Kiss
TTITLE17=Blue And Sentimental
TTITLE18=You'll Love France
TTITLE19=The Touch Of Your Lips
TTITLE20=Unexpected
TTITLE21=You'll Never Know
TTITLE22=Take My Word
TTITLE23=Tenderly
EXTD=YEAR: 2016
EXTT0=
EXTT1=
EXTT2=
EXTT3=
EXTT4=
EXTT5=
EXTT6=
EXTT7=
EXTT8=
EXTT9=
EXTT10=
EXTT11=
EXTT12=
EXTT13=
EXTT14=
EXTT15=
EXTT16=
EXTT17=
EXTT18=
EXTT19=
EXTT20=
EXTT21=
EXTT22=
EXTT23=
PLAYORDER=
